<?xml version="1.0" encoding="utf-8"?>
<svg width="360" height="140" viewBox="0 0 360 140" class="css-1j8o68f" xmlns="http://www.w3.org/2000/svg">
  <defs id="SvgjsDefs1300">
    <linearGradient id="SvgjsLinearGradient1307">
      <stop id="SvgjsStop1308" stop-color="#8f5e25" offset="0"/>
      <stop id="SvgjsStop1309" stop-color="#fbf4a1" offset="0.5"/>
      <stop id="SvgjsStop1310" stop-color="#8f5e25" offset="1"/>
    </linearGradient>
    <linearGradient id="SvgjsLinearGradient1311">
      <stop id="SvgjsStop1312" stop-color="#8f5e25" offset="0"/>
      <stop id="SvgjsStop1313" stop-color="#fbf4a1" offset="0.5"/>
      <stop id="SvgjsStop1314" stop-color="#8f5e25" offset="1"/>
    </linearGradient>
  </defs>
  <g id="SvgjsG1301" featurekey="rootContainer" transform="matrix(1,0,0,1,0,0)" fill="#F4A32B" fill-opacity="0.0">
    <rect xmlns="http://www.w3.org/2000/svg" width="360" height="140" rx="10" ry="10"/>
  </g>
  <g id="SvgjsG1302" featurekey="symbolFeature-0" transform="matrix(2.0833508837376975,0,0,2.0833508837376975,16.87454998114093,16.88012753276177)" fill="url(#SvgjsLinearGradient1307)">
    <g xmlns="http://www.w3.org/2000/svg">
      <path d="M41.5308685,3.4369967c-2.135376-1.2904053-8.9534302-2.4123535-11.9746094-1.7363282   C21.797226,3.4359591,16.4843597,10.113327,16.983017,18.2280121c-0.2102661,0.2331543-0.1640625,0.5579224,0.0652466,0.729187   c0.0631104,0.6143799,0.151123,1.206604,0.2574463,1.7817383c-2.2579346,0.0368042-4.2549438,0.0946655-5.6496582,0.1803589   c-0.5919189-4.057251-1.008728-4.2041626-2.3087769-4.3182373c-2.4423828-0.2143555-4.9238281-0.2714844-7.3671875-0.1689453   C1.70372,16.4433441,1.4897918,16.6767426,1.500595,16.9526215c0.0117188,0.2753906,0.2470703,0.4868164,0.5205079,0.4785156   c2.4042969-0.1005859,4.8398438-0.0444336,7.2382813,0.1660156c1.3423462,0.118042,1.0938721,0.8994141,3.5908203,21.7856445   c-0.7490234,0.6264648-1.3378906,1.5180664-1.8222656,2.324707c-1.2282104,2.0488892-0.3912964,4.4794312,3.0384521,4.5337524   c0.1073608,2.0616455,3.1220093,4.385437,5.3931885,2.5858765c0.7015991-0.5543213,1.1367798-1.4369507,1.2230835-2.3640137   c1.5336914,0.0586548,6.8843384,0.0559082,12.0733032-0.1484985c0.1021118,1.2312622,1.4509888,2.5570068,2.3588257,2.9465942   c2.6477051,1.1341553,5.4733276-1.9283447,3.7598267-5.0629883c-1.4280396-2.595459-5.2943726-2.161438-6.0488281,1.1054688   c-0.0006104,0.0027466-0.0003052,0.0049438-0.0009155,0.0076904c-5.3126831,0.2122192-10.8354492,0.2070313-12.1773071,0.1499023   c-0.0809937-0.4290771-0.2289429-0.8572388-0.4506836-1.2625732c-0.3378906-0.6166992-0.7900391-1.0932617-1.3085938-1.3779297   c-1.3168335-0.72052-4.041748-0.319519-4.7172241,2.4194946c-0.9932861-0.0105591-1.9000244-0.1640625-2.3687134-0.8091431   c-0.4667969-0.6435547-0.2841797-1.5966797,0.0830078-2.2094727c1.3476563-2.2456665,1.8052979-2.0324097,1.9573975-2.4476929   c8.5532837,0.2359619,13.4613647,0.0036011,18.2213135-0.2949829c7.09198-0.4464722,6.9498291-0.1571655,7.1523438-0.6313477   c0.9171143-2.1513672,1.4165649-4.4069824,1.7872925-6.6608887c2.7509766-1.4415894,5.0709229-3.6587524,6.461731-6.6022949   c0.9794922-2.0727539,1.4228516-4.3359375,1.7558594-6.4731445c0.4873047-3.1240234,0.4492188-4.8720703-1.0498047-7.6132813   C47.217392,9.7534027,43.5347748,4.6469574,41.5308685,3.4369967z M34.4556732,44.210434   c0.5859985-0.6366577,1.8654785-0.9313354,2.6289063-0.5126953c0.7668457,0.4208984,1.2939453,1.5111694,1.3125,2.4047852   c0.0335693,1.730896-1.5866089,2.7970581-2.8876953,2.2397461c-0.6912842-0.2963867-1.557312-1.3250732-1.7128906-1.7861328   C33.7046967,46.2841644,33.8332367,44.8873749,34.4556732,44.210434z M15.1226654,45.5283051   c0.4715576-2.0428467,2.4318237-2.2984619,3.2851563-1.8305664c0.3505859,0.1923828,0.6660156,0.5317383,0.9121094,0.980957   c0.2519531,0.4609375,0.3896484,0.9536133,0.3994141,1.4238281c0.03302,1.7057495-1.5618896,2.8081055-2.8867188,2.2397461   c-0.7018433-0.300415-1.5626221-1.3377686-1.7138672-1.7861328C15.0259857,46.281723,15.0269623,45.9452972,15.1226654,45.5283051z    M44.1281586,7.474472c-1.2052002,0.3901978-2.4662476,0.7856445-3.7644653,1.1326904   C39.3197479,6.3333588,37.5169525,4.1585541,35.78685,2.836777C40.825119,3.6167452,41.5221405,4.243515,44.1281586,7.474472z    M33.9197845,33.0832367c-0.5371094,0.0197754-1.0633545,0.0532227-2.3100586-0.0669556   c-0.3233643-0.3274536-2.8520508-1.5484009-4.7883911-7.0258179c4.3829956-1.0013428,7.0530396-0.7839355,12.0389404-0.2461548   C36.8299408,31.6802216,34.1692963,32.7095795,33.9197845,33.0832367z M35.3258514,33.9697723   c-0.0140991,0.1443481-0.0283203,0.293396-0.0420532,0.4263306c-1.3043823-0.0059814-2.6105347-0.007019-3.9212646-0.0040283   c0.008728-0.1176147,0.0130615-0.2355957,0.0181274-0.3534546C32.6946869,34.1649628,34.0201874,34.1412811,35.3258514,33.9697723z    M21.2440033,27.5984344c1.4588623-0.4737549,2.9984131-0.9644165,4.5888672-1.3713989   c0.8331909,2.4134521,2.0596924,4.7893066,3.8517456,6.4918823C26.1877899,31.969162,23.1542206,30.1484833,21.2440033,27.5984344z    M22.3566742,30.1728363c-0.0153198,0.0004883-0.0304565,0.0010376-0.0457764,0.0015259   c0.0006104-0.0150757,0.0009155-0.0270386,0.0015259-0.0419312C22.3271942,30.1457977,22.3418427,30.1595306,22.3566742,30.1728363   z M20.6622162,26.7357025c-1.199707-1.9564819-2.3132324-4.9781494-2.6137695-7.8395996   c1.9945068-0.5397339,4.0360718-0.8903198,6.0790405-1.0891724c0.1234741,1.5133667,0.4667969,4.4321289,1.3915405,7.4676514   C23.8274384,25.7103119,22.1974335,26.2363739,20.6622162,26.7357025z M31.0259857,24.3398285   c-1.5319824,0.09552-3.0457153,0.3568726-4.5223999,0.6983643c-0.7427979-2.3878174-1.18573-4.9512939-1.376709-7.3061523   c4.9123535-0.375,10.3995361-0.0579834,15.3201904,0.2577515c-0.1939087,2.196167-0.6064453,4.5570068-1.2744141,6.7818604   C36.5356293,24.4758148,33.5085297,24.1868744,31.0259857,24.3398285z M25.0585175,16.7351532   c-0.1696777-3.0335693,0.0776367-5.0906372,0.7113037-6.8198242c6.2012939,1.1660767,10.3970947,0.7619019,14.0147705-0.1275024   c0.8649902,2.3757935,0.8762207,5.0075073,0.7380981,7.2047119C35.5115204,16.6707611,30.0124359,16.3582001,25.0585175,16.7351532   z M32.0944061,2.5013888c0.4613647,0.0067139,0.9474487,0.0305786,1.4492798,0.0706177   c0.0457153,0.0558472,0.1010742,0.1046753,0.1707764,0.1374512c2.2954102,1.0817871,4.5675659,3.8604734,5.6692505,6.1454468   c-3.0344238,0.7317505-6.7700806,1.2848511-13.2171021,0.1139526c0.4193115-0.8790894,0.9468384-1.701355,1.5830078-2.5675049   C30.3289032,2.8895724,31.818222,2.9836276,32.0944061,2.5013888z M30.0101776,2.6334078   c-1.935791,1.3325195-3.9785156,4.1991577-4.8508911,6.135498c-1.355957-0.2918701-2.6342163-0.6712036-3.7102051-1.1480103   C23.7593842,4.9219208,27.0439301,3.1633151,30.0101776,2.6334078z M20.8079681,8.427536   c1.1609497,0.5448608,2.5325928,0.9658203,3.9750366,1.2855835c-0.6379395,1.8189697-0.8945923,3.991333-0.7218018,7.0964966   c-2.039978,0.1970215-4.0829468,0.5452881-6.0878296,1.0748291C17.8219452,14.460434,18.7090302,11.2666473,20.8079681,8.427536z    M17.5269623,21.7359467c0.3294678,1.3904419,0.784729,2.6582031,1.348999,3.8052979   c-0.6217041-0.0430908-1.2591553-0.0944214-1.9800415-0.1531982c-0.0973511-1.2151489-0.1989746-2.428894-0.3091431-3.6379395   C16.8876801,21.7443695,17.2114105,21.7404633,17.5269623,21.7359467z M11.7941132,21.9130096   c1.1160889-0.0669556,2.5997925-0.1167603,4.2915649-0.1525269c0.1087036,1.1921387,0.2085571,2.3890991,0.3048096,3.5872803   c-1.3787842-0.1060791-2.7825928-0.1766968-4.1815186-0.0890503C12.0547333,23.9531708,11.9192963,22.84935,11.7941132,21.9130096z    M12.2675629,25.7569427c1.3845215-0.0849609,2.7867432-0.0111084,4.1658325,0.0961914   c0.1161499,1.4732056,0.2231445,2.9493408,0.3200684,4.4262695c-1.324707,0.0036011-2.649353-0.0112305-3.9699707-0.0626831   C12.627243,28.8585663,12.4280853,27.1251068,12.2675629,25.7569427z M13.7847137,38.7732391   c-0.3711548-3.1124878-0.6809082-5.7774048-0.9436035-8.0568848c1.7941284,0.0671387,2.7221069,0.0709839,3.942749,0.0671387   c0.0817261,1.2736816,0.1583252,2.5474854,0.2255249,3.8197632c-3.5924683,0.0966187-3.5944824,0.010498-3.5849609,0.3483887   c0.013855,0.3837891,0.2009888,0.2428589,3.6090698,0.1514282c0.0639038,1.2442017,0.1219482,2.4869995,0.1717529,3.7260742   C16.0635834,38.8142548,14.9207001,38.8054047,13.7847137,38.7732391z M21.4261932,38.845871   c-1.2415771,0.007019-2.4771118,0.0048218-3.7196655-0.0085449c-0.0498657-1.2462769-0.1083984-2.4963379-0.1726074-3.7477417   c1.3466797-0.0349731,2.6918335-0.0685425,4.0380249-0.0942993C21.3936005,39.0132294,21.3284149,38.6773529,21.4261932,38.845871z    M21.5979462,34.4945526c-1.362915,0.026001-2.7246094,0.0597534-4.0879517,0.0952148   c-0.0670166-1.2701416-0.1437378-2.5419312-0.2252197-3.8135376c1.5093994-0.010376,3.0098267-0.0415649,4.5026245-0.0876465   C21.7406464,31.733139,21.6771088,32.9738617,21.5979462,34.4945526z M21.8096161,30.1911469   c-1.5087891,0.046875-3.0299072,0.0758667-4.5545654,0.0861206c-0.0958862-1.4625854-0.2014771-2.9246826-0.3161621-4.3838501   c0.8171387,0.0669556,1.517395,0.1229858,2.2026978,0.1673584c0.7488403,1.3939209,1.6536255,2.6071167,2.6871948,3.6297607   C21.8227997,29.8539886,21.8170013,30.0153656,21.8096161,30.1911469z M25.944931,38.7849579   c-1.921936,0.055542-1.4208984,0.0368042-4.1119995,0.0568237c0.0973511-0.1724243-0.0006714,0.296875,0.2398071-3.8543701   c1.3085938-0.0239258,2.6168823-0.0465088,3.9231567-0.0616455L25.944931,38.7849579z M26.0024872,34.4253998   c-1.2998047,0.0150146-2.6015625,0.0375977-3.9036865,0.0613403c0.0794678-1.5234985,0.1431274-2.767395,0.1898804-3.81427   c0.2070923-0.0066528,0.4135132-0.0132446,0.6203003-0.0198975c0.9677124,0.7852783,2.0142212,1.437439,3.1175537,1.9522705   L26.0024872,34.4253998z M30.4471893,38.573288c-1.3181763,0.0797729-2.6519775,0.145752-4.0018921,0.1919556l0.0507813-3.84729   c1.4450684-0.0155029,2.883606-0.0186768,4.3235474-0.0233765C30.7212372,36.1238251,30.5969696,37.3504486,30.4471893,38.573288z    M30.8619843,34.3942719c-1.4517212,0.0045776-2.9022217,0.0077515-4.359314,0.0233154l0.0211792-1.6019287   c1.3946533,0.5927124,2.8627319,0.9871216,4.3588257,1.1751709C30.8769379,34.125351,30.871933,34.2599945,30.8619843,34.3942719z    M30.9526825,38.5432587c0.1473389-1.2137451,0.2724609-2.4307861,0.3695068-3.6508789   c1.3059692-0.0031128,2.6077271-0.0023804,3.9075317,0.003418c-0.178894,1.6002808-0.3533325,2.5004883-0.6289673,3.4299927   C33.7254486,38.3751678,31.0549164,38.536911,30.9526825,38.5432587z M38.4195404,38.1591644   c-1.1048584,0.0279541-2.2023926,0.0767822-3.288208,0.1349487c0.2583618-0.9081421,0.4276733-1.8248291,0.6013184-3.3947754   c1.2382813,0.0066528,2.4780884,0.0114746,3.7091064,0.0263062C39.173996,36.0243988,38.8466644,37.108078,38.4195404,38.1591644z    M39.5580902,34.4264374c-1.2515259-0.0153198-2.5128174-0.0198975-3.7720947-0.0267944   c0.0159302-0.1553345,0.0323486-0.3283081,0.0487061-0.4970703c1.4016113-0.2260132,2.7675781-0.6291504,4.0615234-1.1876221   C39.7936859,33.2871552,39.6864471,33.8589325,39.5580902,34.4264374z M35.6999969,32.9274139   c2.0009766-1.7928467,3.3154297-4.4240723,4.1817627-7.0523682c1.7710571,0.2472534,3.4331665,0.6934814,5.2886963,1.5911865   C42.9644623,30.4381561,39.6299286,32.3660126,35.6999969,32.9274139z M46.561142,25.1576996   c-0.243103,0.5146484-0.520752,1.0022583-0.8181152,1.4729004c-1.9293823-0.9530029-3.7068481-1.4508057-5.5605469-1.7227783   c0.7973022-2.7463379,1.1331787-5.3571167,1.2669067-6.8616333c2.2868042,0.1557007,4.5679321,0.34198,6.833252,0.5578003   C47.9582977,20.818161,47.5198822,23.1273041,46.561142,25.1576996z M48.4095306,17.6114349   c-2.2833252-0.2179565-4.5829468-0.4056396-6.8880005-0.5627441c0.1420898-2.2721558,0.1226807-4.9950562-0.7704468-7.5103149   c1.3991089-0.37854,2.7524414-0.809021,4.0372925-1.2265625C47.5041962,11.8454437,48.7976532,13.9787445,48.4095306,17.6114349z"/>
    </g>
  </g>
  <g id="SvgjsG1303" featurekey="nameFeature-0" transform="matrix(0.7769360391104595,0,0,0.7769360391104595,139.69593938859202,49.09382134549256)" fill="url(#SvgjsLinearGradient1311)">
    <path d="M4.9609 40 c0.40365 0.3125 0.8659 0.54689 1.3867 0.70314 l0 0.35156 c-0.67709 0.53385 -1.4388 0.80078 -2.2852 0.80078 c-0.66406 0 -1.276 -0.16275 -1.8359 -0.48828 c0.23438 -0.13021 0.45572 -0.29949 0.66406 -0.50783 c0.76822 -0.11719 1.4583 -0.40365 2.0703 -0.85938 z M20.859 14.453 c0.33854 -0.54688 0.5599 -1.1393 0.66406 -1.7773 c0.19531 -0.20834 0.35807 -0.42969 0.48828 -0.66406 c0.33854 0.57291 0.50781 1.1849 0.50781 1.8359 c0 0.70313 -0.20182 1.3672 -0.60547 1.9922 l-0.46875 0 c-0.13021 -0.50781 -0.32553 -0.97006 -0.58594 -1.3867 z M17.012 17.793 c0.83334 0 1.5299 0.319 2.0898 0.95703 l-0.13672 -0.019531 l-9.4336 0 l0 3.9453 l-0.9375 0 l0 -4.8828 l8.418 0 z M10.117 40.17582 c0.32553 0.50781 0.73564 0.90492 1.2304 1.1914 c-0.57291 0.32553 -1.1784 0.48828 -1.8164 0.48828 c-0.84635 0 -1.6081 -0.26693 -2.2852 -0.80078 l0 -0.17578 l0.21484 0.019531 l0.23438 0.019531 c0.79428 0 1.5495 -0.20182 2.2656 -0.60547 c0.05209 -0.026035 0.10418 -0.071602 0.15627 -0.1367 z M19.59 24.258 c0.19531 -0.22135 0.36461 -0.4492 0.50783 -0.68357 c0.32553 0.57291 0.48828 1.1849 0.48828 1.8359 c0 0.71615 -0.20182 1.3802 -0.60547 1.9922 l-0.46875 0 c-0.13021 -0.50781 -0.32553 -0.97006 -0.58594 -1.3867 c0.33854 -0.54688 0.55988 -1.1328 0.66404 -1.7578 z M21.914 16.738 c0.40365 0.61197 0.60547 1.276 0.60547 1.9922 c0 0.65104 -0.16928 1.2565 -0.50781 1.8164 c-0.28646 -0.49479 -0.67709 -0.90494 -1.1719 -1.2305 c0.05209 -0.05209 0.091152 -0.097656 0.11719 -0.13672 c0.40365 -0.71615 0.60547 -1.4779 0.60547 -2.2852 l0 -0.15625 l0.35156 0 z M15.078 29.355 c0.83334 0 1.5299 0.319 2.0898 0.95703 l-0.11719 -0.019531 l-7.5195 0 l0 8.0273 l0.019531 0.11719 c-0.63803 -0.5599 -0.95703 -1.25 -0.95703 -2.0703 l0 -7.0117 l6.4844 0 z M19.98 28.301000000000002 c0.40365 0.59896 0.60547 1.263 0.60547 1.9922 c0 0.65104 -0.16928 1.263 -0.50781 1.8359 c-0.27344 -0.50781 -0.66406 -0.92447 -1.1719 -1.25 l0.11719 -0.13672 c0.41666 -0.70313 0.625 -1.4648 0.625 -2.2852 l-0.019531 -0.15625 l0.35156 0 z M5.4102 26.465 l12.734 0 c0.40365 0.59896 0.60547 1.263 0.60547 1.9922 c0 0.65104 -0.16928 1.2565 -0.50781 1.8164 c-0.70313 -1.2109 -1.7578 -1.8164 -3.1641 -1.8164 l-7.3828 0 l0 7.9102 c0 1.3932 0.60547 2.4479 1.8164 3.1641 c-0.57291 0.32553 -1.1784 0.48828 -1.8164 0.48828 c-0.85938 0 -1.6211 -0.26693 -2.2852 -0.80078 l0 -12.754 z M5.4102 14.902000000000001 l14.668 0.000019073 c0.39063 0.61197 0.58594 1.276 0.58594 1.9922 c0 0.65104 -0.16275 1.2565 -0.48828 1.8164 c-0.70313 -1.2109 -1.7578 -1.8164 -3.1641 -1.8164 l-9.3164 0 l0 6.6797 l7.3828 0 c1.4193 0 2.4805 -0.61197 3.1836 -1.8359 c0.32553 0.57291 0.48828 1.1849 0.48828 1.8359 c0 0.71615 -0.20182 1.3802 -0.60547 1.9922 l-12.734 0 l0 -10.664 z M17.012 12.012 c1.4063 0 2.4609 -0.61195 3.1641 -1.8359 c0.32553 0.57291 0.4948 1.1849 0.50783 1.8359 c-0.013027 0.70313 -0.21484 1.3672 -0.60547 1.9922 l-15.566 0 l0 25.215 c-0.67709 0.53385 -1.4388 0.80078 -2.2852 0.80078 c-0.66406 0 -1.276 -0.16275 -1.8359 -0.48828 c1.224 -0.71615 1.8359 -1.7708 1.8359 -3.1641 l0 -7.207 c-0.013027 -1.3932 -0.625 -2.4414 -1.8359 -3.1445 c1.2109 -0.70313 1.8229 -1.7513 1.8359 -3.1445 l0 -7.207 c-0.013027 -1.4063 -0.625 -2.4609 -1.8359 -3.1641 c0.5599 -0.32553 1.1719 -0.48828 1.8359 -0.48828 l14.785 0 z M28.80855625 18.73 c-1.4063 0 -2.4674 0.60547 -3.1836 1.8164 c-0.32553 -0.57291 -0.48828 -1.1784 -0.48828 -1.8164 l0 -0.13672 l0.019531 -0.13672 c0.52084 -0.44271 1.1198 -0.66406 1.7969 -0.66406 l2.7734 0 l0 0.9375 l-0.91797 0 z M33.35915625 40.23438 c0.40365 0.3125 0.86588 0.54689 1.3867 0.70314 l0 0.35156 c-0.67709 0.53385 -1.4388 0.80078 -2.2852 0.80078 c-0.66406 0 -1.276 -0.16275 -1.8359 -0.48828 c0.23438 -0.13021 0.45572 -0.29949 0.66406 -0.50783 c0.75521 -0.11719 1.4453 -0.40365 2.0703 -0.85938 z M43.57415625 14.453 c0.35156 -0.54688 0.57943 -1.1393 0.68359 -1.7773 c0.19531 -0.22135 0.35807 -0.4427 0.48828 -0.66404 c0.33854 0.57291 0.50781 1.1849 0.50781 1.8359 c-0.013027 0.71615 -0.21484 1.3802 -0.60547 1.9922 l-0.48828 0 c-0.11719 -0.50781 -0.3125 -0.97006 -0.58594 -1.3867 z M38.515156250000004 40.42971 c0.32553 0.49479 0.73566 0.88541 1.2304 1.1719 c-0.5599 0.32553 -1.1654 0.48828 -1.8164 0.48828 c-0.85938 0 -1.6211 -0.26693 -2.2852 -0.80078 l0 -0.17578 l0.21484 0.019531 l0.23438 0.019531 c0.80729 0 1.5625 -0.20182 2.2656 -0.60547 c0.05209 -0.026035 0.10418 -0.065098 0.15627 -0.11719 z M44.64815625 16.738 c0.39063 0.59896 0.58594 1.237 0.58594 1.9141 l0 0.058594 c0 0.65104 -0.16275 1.263 -0.48828 1.8359 c-0.28646 -0.49479 -0.67709 -0.90494 -1.1719 -1.2305 c0.05209 -0.05209 0.091152 -0.10418 0.11719 -0.15627 c0.40365 -0.70313 0.60547 -1.4648 0.60547 -2.2852 l0 -0.13672 l0.35156 0 z M39.74615625 17.793 c0.83334 0 1.5234 0.319 2.0703 0.95703 l-0.11719 -0.019531 l-3.7695 0 l0 6.0742 l0.019531 0.11719 c-0.63803 -0.54688 -0.95703 -1.237 -0.95703 -2.0703 l0 -5.0586 l2.7539 0 z M38.515156250000004 26.68 c0.32553 0.49479 0.73566 0.88543 1.2304 1.1719 c-1.2109 0.70313 -1.8164 1.7578 -1.8164 3.1641 l0 7.5391 l0.019531 0.11719 c-0.63803 -0.54688 -0.95703 -1.237 -0.95703 -2.0703 l0 -7.4219 c0 -1.0677 0.45572 -1.862 1.3672 -2.3828 c0.05209 -0.026035 0.10418 -0.065098 0.15627 -0.11719 z M33.808156249999996 14.902000000000001 l8.9844 0.000019073 c0.40365 0.61197 0.60547 1.2695 0.60547 1.9727 c0 0.65104 -0.16275 1.263 -0.48828 1.8359 c-0.70313 -1.2109 -1.7578 -1.8164 -3.1641 -1.8164 l-3.6523 0 l0 5.957 c0 1.4063 0.60547 2.4609 1.8164 3.1641 c-1.2109 0.70313 -1.8164 1.7578 -1.8164 3.1641 l0 7.4219 c0 1.4063 0.60547 2.4609 1.8164 3.1641 c-0.5599 0.32553 -1.1654 0.48828 -1.8164 0.48828 c-0.85938 0 -1.6211 -0.26693 -2.2852 -0.80078 l0 -24.551 z M23.78898625 18.711 c-0.32553 -0.57291 -0.48828 -1.1784 -0.48828 -1.8164 c0 -0.71615 0.20182 -1.3802 0.60547 -1.9922 l9.0039 0 l0 24.551 c-0.67709 0.53385 -1.4453 0.80078 -2.3047 0.80078 c-0.65104 0 -1.2565 -0.16275 -1.8164 -0.48828 c1.2109 -0.70313 1.8229 -1.7578 1.8359 -3.1641 l0 -7.4414 c-0.013027 -1.3932 -0.625 -2.4414 -1.8359 -3.1445 c1.2109 -0.70313 1.8229 -1.7513 1.8359 -3.1445 l0 -5.9766 l-3.6719 0 c-1.3932 0 -2.4479 0.60547 -3.1641 1.8164 z M39.74615625 12.012 c1.4063 0 2.4609 -0.61197 3.1641 -1.8359 c0.32553 0.57291 0.48828 1.1849 0.48828 1.8359 c0 0.71615 -0.20182 1.3802 -0.60547 1.9922 l-18.887 0 c-0.40365 -0.61197 -0.60547 -1.276 -0.60547 -1.9922 c0 -0.65104 0.16275 -1.263 0.48828 -1.8359 c0.71615 1.224 1.7708 1.8359 3.1641 1.8359 l12.793 0 z M61.50415625 21.523 c0.625 -0.091152 1.2109 -0.31248 1.7578 -0.66404 c0.40365 0.26041 0.8659 0.45572 1.3867 0.58594 l0 0.15625 l0.019531 0.3125 c-0.625 0.40365 -1.2956 0.60547 -2.0117 0.60547 c-0.65104 0 -1.263 -0.16275 -1.8359 -0.48828 c0.23438 -0.13021 0.46225 -0.29949 0.68359 -0.50783 z M67.98815625 20.957 c0.039063 -0.026035 0.091133 -0.065098 0.15623 -0.11719 c0.32553 0.50781 0.73568 0.90494 1.2305 1.1914 c-0.57291 0.32553 -1.1849 0.48828 -1.8359 0.48828 c-0.71615 0 -1.3802 -0.19531 -1.9922 -0.58594 l0 -0.37109 l0.078125 0.019531 l0.078125 0 c0.80729 0 1.569 -0.20834 2.2852 -0.625 z M55.99615625 17.48 c1.25 0 2.2266 0.3451 2.9297 1.0352 c-0.35156 -0.05209 -0.71615 -0.078125 -1.0938 -0.078125 c-1.4583 0 -2.6236 0.49479 -3.4961 1.4844 c-0.42969 0.54688 -0.72916 1.1068 -0.89844 1.6797 c-0.20834 0.6901 -0.33855 1.7318 -0.39064 3.125 l0 0.13672 c-0.59896 -0.52084 -0.91146 -1.1784 -0.9375 -1.9727 c0.05209 -1.3151 0.16928 -2.2852 0.35156 -2.9102 c0.13021 -0.44271 0.36459 -0.87891 0.70313 -1.3086 c0.70313 -0.79428 1.6471 -1.1914 2.832 -1.1914 z M67.53915625 33.0664 c0.65104 0 1.2631 0.16273 1.836 0.48826 c-0.78125 0.44271 -1.3281 1.1068 -1.6406 1.9922 c-0.70313 1.9662 -1.862 3.5092 -3.4766 4.6289 c-1.7578 1.237 -3.8998 1.8555 -6.4258 1.8555 c-2.0834 0 -3.9518 -0.50781 -5.6055 -1.5234 c1.1979 0.39063 2.4545 0.58594 3.7695 0.58594 c2.6041 0 4.8438 -0.6185 6.7188 -1.8555 s3.2162 -2.9818 4.0234 -5.2344 c0.11719 -0.33854 0.29947 -0.64453 0.54688 -0.91797 l0.11719 -0.019531 l0.13672 0 z M53.28125625 33.3594 l-0.078145 -0.097619 c-0.35156 -0.44271 -0.59244 -0.88543 -0.72266 -1.3281 c-0.19531 -0.625 -0.319 -1.5951 -0.37109 -2.9102 c0.039063 -1.0156 0.49479 -1.7838 1.3672 -2.3047 c0.05209 -0.013027 0.10418 -0.05209 0.15627 -0.11719 c0.32553 0.50781 0.73568 0.90494 1.2305 1.1914 c-1.1719 0.6901 -1.7773 1.7122 -1.8164 3.0664 c0.039063 1.0417 0.11719 1.875 0.23438 2.5 z M65.70315625 20.684 c-0.71615 0 -1.3802 -0.19535 -1.9922 -0.58598 l0 -0.44922 c-0.013027 -0.05209 -0.019531 -0.11719 -0.019531 -0.19531 c-0.039063 -0.22135 -0.084629 -0.44922 -0.13672 -0.68359 c-0.18229 -0.75521 -0.47525 -1.4453 -0.87891 -2.0703 c-1.3021 -1.9922 -3.4701 -2.9883 -6.5039 -2.9883 c-2.4869 0 -4.375 0.64453 -5.6641 1.9336 c-1.0156 1.0287 -1.7122 2.526 -2.0898 4.4922 c-0.26041 1.3932 -0.39063 3.2227 -0.39063 5.4883 l0 0.33203 c0.026035 3.9713 0.46223 6.8164 1.3086 8.5352 c1.1979 2.474 3.4766 3.7109 6.8359 3.7109 c3.0338 0 5.2018 -0.99609 6.5039 -2.9883 c0.40365 -0.625 0.69662 -1.3151 0.87891 -2.0703 c0.05209 -0.23438 0.097656 -0.46875 0.13672 -0.70313 c0 -0.065098 0.0065041 -0.1302 0.019531 -0.19529 l0 -0.42969 c0.61197 -0.39063 1.276 -0.58594 1.9922 -0.58594 c0.65104 0 1.263 0.16275 1.8359 0.48828 c-0.78125 0.44271 -1.3281 1.1068 -1.6406 1.9922 c-0.70313 1.9531 -1.862 3.4961 -3.4766 4.6289 c-1.7578 1.237 -3.8998 1.8555 -6.4258 1.8555 c-2.9947 0 -5.5143 -1.0221 -7.5586 -3.0664 c-1.2109 -1.2109 -1.9727 -2.6172 -2.2852 -4.2188 c-0.19531 -0.96354 -0.32553 -2.2266 -0.39063 -3.7891 c0 -1.4063 -0.61197 -2.4609 -1.8359 -3.1641 c1.224 -0.70313 1.8359 -1.7578 1.8359 -3.1641 c0.065098 -1.5625 0.19531 -2.832 0.39063 -3.8086 c0.3125 -1.5885 1.0742 -2.9883 2.2852 -4.1992 c2.0572 -2.0443 4.5768 -3.0664 7.5586 -3.0664 c2.526 0 4.668 0.61197 6.4258 1.8359 c1.6146 1.1328 2.7734 2.6822 3.4766 4.6484 c0.29947 0.8724 0.84635 1.5365 1.6406 1.9922 c-0.57291 0.32553 -1.1849 0.48828 -1.8359 0.48828 z M59.96115625 19.395 c0.10416 -0.15625 0.16271 -0.31889 0.17574 -0.48816 l0 -0.039063 c0 -0.20834 -0.078125 -0.41668 -0.23438 -0.62502 c-0.89844 -1.0938 -2.2006 -1.6406 -3.9063 -1.6406 c-1.4583 0 -2.6236 0.49479 -3.4961 1.4844 c-0.42969 0.54688 -0.72916 1.1068 -0.89844 1.6797 c-0.20834 0.6901 -0.33855 1.7318 -0.39064 3.125 c0.039063 1.3672 0.64453 2.3893 1.8164 3.0664 c-1.1719 0.67709 -1.7773 1.6992 -1.8164 3.0664 c0.05209 1.3932 0.1823 2.435 0.39064 3.125 c0.16928 0.57291 0.46875 1.1328 0.89844 1.6797 c0.8724 0.98959 2.0377 1.4844 3.4961 1.4844 c1.7057 0 3.0078 -0.55338 3.9063 -1.6602 c0.15625 -0.19531 0.23438 -0.39713 0.23438 -0.60547 l0 -0.039063 c-0.013027 -0.16928 -0.071621 -0.33203 -0.17578 -0.48828 c-0.20834 -0.28646 -0.53387 -0.5534 -0.97658 -0.8008 c0.57291 -0.32553 1.1849 -0.48828 1.8359 -0.48828 c0.71615 0 1.3867 0.20182 2.0117 0.60547 l-0.019531 0.3125 l0 0.097656 c-0.013027 0.05209 -0.019531 0.11068 -0.019531 0.17578 c-0.026035 0.20834 -0.065098 0.41668 -0.11719 0.62502 c-0.15625 0.63803 -0.41666 1.224 -0.78125 1.7578 c-1.1328 1.6667 -3.0404 2.5 -5.7227 2.5 c-2.8646 0 -4.8242 -0.95053 -5.8789 -2.8516 c-0.88541 -1.6016 -1.3411 -4.4336 -1.3672 -8.4961 l0 -0.35156 c0 -2.1484 0.11719 -3.8736 0.35156 -5.1758 c0.33854 -1.849 0.96354 -3.2291 1.875 -4.1406 c1.1198 -1.1198 2.793 -1.6797 5.0195 -1.6797 c2.6693 0 4.5703 0.83334 5.7031 2.5 c0.36459 0.52084 0.63152 1.1068 0.8008 1.7578 c0.05209 0.20834 0.091152 0.41016 0.11719 0.60547 c0 0.065098 0.0065041 0.1302 0.019531 0.19529 l0 0.097656 l0.019531 0.3125 c-0.625 0.40365 -1.2956 0.60547 -2.0117 0.60547 c-0.65104 0 -1.263 -0.16275 -1.8359 -0.48828 c0.44271 -0.2474 0.76824 -0.51434 0.97658 -0.8008 z M82.4999375 17.5 c1.0807 0 1.9596 0.33203 2.6367 0.99609 c-0.28646 -0.039063 -0.5534 -0.058594 -0.8008 -0.058594 c-1.4974 0 -2.6758 0.49479 -3.5352 1.4844 c-0.74219 0.82031 -1.1719 2.3959 -1.2891 4.7266 l0.019531 0.097656 l0 0.11719 c-0.63803 -0.54688 -0.95703 -1.2174 -0.95703 -2.0117 c0.10416 -2.1094 0.45572 -3.5025 1.0547 -4.1797 c0.6901 -0.78125 1.6471 -1.1719 2.8711 -1.1719 z M93.7109375 22.871 c-0.091152 -2.0053 -0.34506 -3.6523 -0.76172 -4.9414 c0.98959 1.5365 1.556 3.815 1.6992 6.8359 l0 0.078125 c-0.59896 -0.53385 -0.91146 -1.1914 -0.9375 -1.9727 z M79.6679375 33.2617 l-0.039082 -0.039082 c-0.3776 -0.41666 -0.6315 -0.83332 -0.76172 -1.25 c-0.18229 -0.58594 -0.28645 -1.5299 -0.31248 -2.832 l0 -0.039063 c0 -1.0287 0.46875 -1.8164 1.4063 -2.3633 l0.15625 -0.11719 c0.32553 0.49479 0.73568 0.88541 1.2305 1.1719 c-0.5599 0.32553 -1.0091 0.77475 -1.3477 1.3477 c-0.33854 0.5599 -0.50781 1.1589 -0.50781 1.7969 l0 0.078125 c0.026035 0.92447 0.084629 1.6732 0.17578 2.2461 z M95.2539375 26.602 c0.32553 0.50781 0.73566 0.90492 1.2304 1.1914 c-1.224 0.71615 -1.8359 1.7708 -1.8359 3.1641 c-0.039063 1.849 -0.22787 3.3203 -0.56641 4.4141 c-0.41666 1.3412 -1.1523 2.5391 -2.207 3.5938 c-2.0313 2.0443 -4.5443 3.0664 -7.5391 3.0664 c-2.1225 0 -4.0039 -0.50781 -5.6445 -1.5234 c1.1979 0.39063 2.4609 0.58594 3.7891 0.58594 l0.019531 0 c3.2422 0 5.9701 -1.1133 8.1836 -3.3398 c1.1328 -1.1328 1.9271 -2.4154 2.3828 -3.8477 c0.3776 -1.1979 0.59244 -2.793 0.64453 -4.7852 c0 -1.0547 0.46225 -1.849 1.3867 -2.3828 c0.05209 -0.026035 0.10418 -0.071602 0.15627 -0.1367 z M90.5659375 25.762 c0 -2.7734 -0.10416 -4.6939 -0.3125 -5.7617 c-0.27344 -1.4583 -0.87891 -2.6563 -1.8164 -3.5938 c-1.6016 -1.6016 -3.5807 -2.4023 -5.9375 -2.4023 c-2.3959 0 -4.3881 0.80078 -5.9766 2.4023 c-0.92447 0.92447 -1.5234 2.1029 -1.7969 3.5352 c-0.19531 1.0417 -0.29297 2.9166 -0.29297 5.625 l0 0.78125 c0 2.7084 0.097656 4.5834 0.29297 5.625 c0.27344 1.4323 0.8724 2.6107 1.7969 3.5352 c1.5885 1.6016 3.5742 2.4023 5.957 2.4023 c2.3697 0 4.3555 -0.80078 5.957 -2.4023 c0.9375 -0.9375 1.543 -2.142 1.8164 -3.6133 c0.20834 -1.0677 0.3125 -2.9818 0.3125 -5.7422 l0 -0.39063 z M93.3589375 24.686999999999998 c0.32553 0.54688 0.75525 0.97008 1.2891 1.2696 c-1.224 0.71615 -1.8359 1.7708 -1.8359 3.1641 c-0.039063 1.849 -0.22787 3.3203 -0.56641 4.4141 c-0.41666 1.3412 -1.1523 2.5391 -2.207 3.5938 c-2.0313 2.0443 -4.5508 3.0664 -7.5586 3.0664 s-5.5338 -1.0221 -7.5781 -3.0664 c-1.0677 -1.0677 -1.8034 -2.2982 -2.207 -3.6914 c-0.3125 -1.1068 -0.48828 -2.6432 -0.52734 -4.6094 c-0.10416 -1.276 -0.70963 -2.233 -1.8164 -2.8711 c1.224 -0.70313 1.8359 -1.7578 1.8359 -3.1641 c0.065098 -1.7838 0.26691 -3.2486 0.60545 -4.3945 c0.41666 -1.4323 1.1198 -2.6367 2.1094 -3.6133 c2.0443 -2.0443 4.5768 -3.0664 7.5977 -3.0664 c2.9947 0 5.5078 1.0221 7.5391 3.0664 c0.98959 0.97656 1.6992 2.2006 2.1289 3.6719 c0.33854 1.1458 0.55338 2.6367 0.64453 4.4727 c0.026035 0.625 0.20832 1.2109 0.54686 1.7578 z M86.9339375 32.2461 c0.20834 -0.66406 0.33857 -1.7058 0.39066 -3.125 c0 -1.3932 -0.6185 -2.4479 -1.8555 -3.1641 c1.224 -0.70313 1.8359 -1.7578 1.8359 -3.1641 c-0.13021 -2.3047 -0.56641 -3.8736 -1.3086 -4.707 c-0.8724 -0.98959 -2.0377 -1.4844 -3.4961 -1.4844 c-1.4974 0 -2.6758 0.49479 -3.5352 1.4844 c-0.74219 0.82031 -1.1719 2.3959 -1.2891 4.7266 c0 1.3932 0.61197 2.4414 1.8359 3.1445 c-0.5599 0.32553 -1.0091 0.76824 -1.3477 1.3281 c-0.33854 0.57291 -0.50781 1.1719 -0.50781 1.7969 l0 0.078125 c0.026035 1.3802 0.14973 2.4088 0.37107 3.0859 c0.16928 0.54688 0.48178 1.0742 0.9375 1.582 c0.85938 0.98959 2.0377 1.4844 3.5352 1.4844 c1.4713 0 2.6367 -0.49479 3.4961 -1.4844 c0.45572 -0.50781 0.76822 -1.0352 0.9375 -1.582 z M87.7929375 17.031 c0.83334 0.82031 1.3672 1.9205 1.6016 3.3008 c0.18229 0.98959 0.27344 2.7994 0.27344 5.4297 l-0.019531 0.39063 c0 2.6303 -0.084629 4.44 -0.25391 5.4297 c-0.23438 1.3672 -0.76822 2.4674 -1.6016 3.3008 c-1.4193 1.4193 -3.1836 2.1289 -5.293 2.1289 c-2.1484 0 -3.9322 -0.70963 -5.3516 -2.1289 c-0.80729 -0.82031 -1.3281 -1.8945 -1.5625 -3.2227 c-0.16928 -0.97656 -0.25391 -2.7475 -0.25391 -5.3125 l0 -0.78125 c0 -2.565 0.084629 -4.3359 0.25391 -5.3125 c0.23438 -1.3412 0.75521 -2.4154 1.5625 -3.2227 c1.4323 -1.4193 3.2162 -2.1289 5.3516 -2.1289 c2.1094 0 3.8736 0.70963 5.293 2.1289 z M127.10900000000001 26.621000000000002 c0.32553 0.49479 0.73568 0.88541 1.2305 1.1719 c-1.224 0.70313 -1.8359 1.7578 -1.8359 3.1641 l0 7.5391 l0.019531 0.11719 c-0.63803 -0.54688 -0.95703 -1.237 -0.95703 -2.0703 l0 -7.4219 c0 -1.0547 0.46225 -1.849 1.3867 -2.3828 c0.039063 -0.026035 0.091152 -0.065098 0.15625 -0.11719 z M107.266 14.98 c-0.29947 -0.61197 -0.46225 -1.0807 -0.48828 -1.4063 c0.59896 0.026035 1.1523 0.18229 1.6602 0.46875 c-0.46875 0.27344 -0.70313 0.6901 -0.70313 1.25 c0 0.36459 0.091152 0.78125 0.27344 1.25 z M102.0313 40.17578 c0.40365 0.3125 0.86588 0.54689 1.3867 0.70314 l0 0.35156 c-0.67709 0.53385 -1.4388 0.80078 -2.2852 0.80078 c-0.66406 0 -1.276 -0.16275 -1.8359 -0.48828 c0.23438 -0.13021 0.45572 -0.29949 0.66406 -0.50783 c0.75521 -0.11719 1.4453 -0.40365 2.0703 -0.85938 z M128.34 14.043 c-1.224 0.70313 -1.8359 1.7578 -1.8359 3.1641 l0 7.5391 l0.019531 0.11719 c-0.63803 -0.54688 -0.95703 -1.237 -0.95703 -2.0703 l0 -7.4219 c0 -0.67709 0.22787 -1.2761 0.68359 -1.7969 l0.11719 -0.019531 l0.13672 0 c0.66406 0 1.276 0.16275 1.8359 0.48828 z M105.6641 27.422 c0.3125 0.61197 0.625 1.2305 0.9375 1.8555 l0 9.2188 l0.019531 0.11719 c-0.63803 -0.54688 -0.95703 -1.237 -0.95703 -2.0703 l0 -9.1211 z M107.188 40.3516 c0.32553 0.50781 0.73566 0.90492 1.2304 1.1914 c-0.5599 0.32553 -1.1654 0.48828 -1.8164 0.48828 c-0.84635 0 -1.6081 -0.26693 -2.2852 -0.80078 l0 -0.17578 l0.21484 0.019531 l0.23438 0.019531 c0.80729 0 1.5625 -0.20182 2.2656 -0.60547 c0.05209 -0.026035 0.10418 -0.071602 0.15627 -0.1367 z M127.10900000000001 40.37111 c0.32553 0.49479 0.73564 0.88541 1.2304 1.1719 c-0.57291 0.32553 -1.1849 0.48828 -1.8359 0.48828 c-0.84635 0 -1.6081 -0.26693 -2.2852 -0.80078 l0 -0.17578 l0.23438 0.019531 l0.21484 0.019531 c0.79428 0 1.5495 -0.20182 2.2656 -0.60547 c0.05209 -0.026035 0.11068 -0.065098 0.17578 -0.11719 z M111.992 33.0469 c0.35156 0.16928 0.72268 0.29947 1.1133 0.39063 l0.33203 0.64453 c-0.52084 0.26041 -1.0612 0.39063 -1.6211 0.39063 c-0.66406 0 -1.276 -0.16275 -1.8359 -0.48828 c0.15625 -0.11719 0.26693 -0.27344 0.33203 -0.46875 c0.58594 -0.039063 1.1458 -0.19531 1.6797 -0.46875 z M121.934 40.17578 c0.41666 0.3125 0.87893 0.54689 1.3867 0.70314 l0 0.35156 c-0.67709 0.53385 -1.4388 0.80078 -2.2852 0.80078 c-0.65104 0 -1.2565 -0.16275 -1.8164 -0.48828 c0.22135 -0.13021 0.4427 -0.29949 0.66404 -0.50783 c0.75521 -0.11719 1.4388 -0.40365 2.0508 -0.85938 z M117.52 32.4414 c-0.16928 0.29947 -0.25393 0.56641 -0.25393 0.80078 c0 0.29947 0.13672 0.54688 0.41016 0.74219 c-0.5599 0.32553 -1.1654 0.48828 -1.8164 0.48828 c-0.57291 0 -1.1198 -0.13021 -1.6406 -0.39063 l0.3125 -0.58594 c0.63803 -0.065098 1.224 -0.25391 1.7578 -0.56641 c0.28646 -0.16928 0.43621 -0.41668 0.44924 -0.74221 l0 -0.039063 c0 -0.29947 -0.12369 -0.54035 -0.37109 -0.72264 l0 -0.11719 c0.013027 -0.078125 0.05209 -0.18229 0.11719 -0.3125 l1.8164 -3.5938 l0 3.4961 z M124.668 11.719000000000001 c0.66406 0 1.276 0.16275 1.8359 0.48828 c-1.224 0.70313 -1.8359 1.7578 -1.8359 3.1641 l0 7.4219 c0 1.4063 0.61197 2.4609 1.8359 3.1641 c-1.224 0.70313 -1.8359 1.7578 -1.8359 3.1641 l0 7.4219 c0 1.3932 0.61197 2.4479 1.8359 3.1641 c-0.57291 0.32553 -1.1849 0.48828 -1.8359 0.48828 c-0.84635 0 -1.6081 -0.26693 -2.2852 -0.80078 l0 -26.875 c0.67709 -0.53385 1.4388 -0.80078 2.2852 -0.80078 z M114.023 32.6367 c-0.57291 0 -1.1198 -0.13021 -1.6406 -0.39063 l9.1016 -17.48 l0 24.629 c-0.67709 0.53385 -1.4388 0.80078 -2.2852 0.80078 c-0.65104 0 -1.263 -0.16275 -1.8359 -0.48828 c1.224 -0.71615 1.8359 -1.7708 1.8359 -3.1641 l0 -12.91 l-3.5156 6.9727 c-0.16928 0.29947 -0.25391 0.56641 -0.25391 0.80078 c0 0.29947 0.13672 0.54688 0.41016 0.74219 c-0.5599 0.32553 -1.1654 0.48828 -1.8164 0.48828 z M104.7654 40.19533 c-0.84635 0 -1.608 -0.26691 -2.2852 -0.80076 l0 -24.629 l9.1211 17.48 c-0.52084 0.26041 -1.0612 0.39063 -1.6211 0.39063 c-0.66406 0 -1.276 -0.16275 -1.8359 -0.48828 c0.26041 -0.19531 0.39063 -0.44271 0.39063 -0.74219 c0 -0.23438 -0.078125 -0.50131 -0.23438 -0.80078 c-0.39063 -0.72916 -1.0807 -2.0768 -2.0703 -4.043 c-0.3125 -0.61197 -0.64453 -1.2695 -0.99609 -1.9727 c-0.05209 -0.11719 -0.11068 -0.24088 -0.17578 -0.37109 c-0.039063 -0.091152 -0.084629 -0.1823 -0.13672 -0.27346 c-0.10416 -0.19531 -0.15625 -0.29947 -0.15625 -0.3125 l0 12.91 c0 1.3932 0.60547 2.4479 1.8164 3.1641 c-0.57291 0.32553 -1.1784 0.48828 -1.8164 0.48828 z M117.52 15.370999999999999 c0.36459 -0.75521 0.54688 -1.3867 0.54688 -1.8945 c0 -0.57291 -0.22787 -0.99609 -0.68359 -1.2695 c0.5599 -0.32553 1.1654 -0.48828 1.8164 -0.48828 c0.91146 0 1.7122 0.29947 2.4023 0.89844 l-9.6094 18.438 l-9.6289 -18.438 c0.6901 -0.59896 1.4909 -0.89844 2.4023 -0.89844 c0.65104 0 1.2565 0.16275 1.8164 0.48828 c-0.45572 0.27344 -0.68359 0.69662 -0.68359 1.2695 c0 0.50781 0.18229 1.1393 0.54688 1.8945 l5.5469 11.719 z M99.2969 11.719000000000001 c0.84635 0 1.6081 0.26693 2.2852 0.80078 l0 26.875 c-0.67709 0.53385 -1.4388 0.80078 -2.2852 0.80078 c-0.66406 0 -1.276 -0.16275 -1.8359 -0.48828 c1.224 -0.71615 1.8359 -1.7708 1.8359 -3.1641 l0 -7.4219 c0 -1.3932 -0.61197 -2.4479 -1.8359 -3.1641 c1.224 -0.70313 1.8359 -1.7578 1.8359 -3.1641 l0 -7.4219 c0 -1.4063 -0.61197 -2.4609 -1.8359 -3.1641 c0.5599 -0.32553 1.1719 -0.48828 1.8359 -0.48828 z M159.15978125 26.621000000000002 c0.32553 0.49479 0.73568 0.88541 1.2305 1.1719 c-1.224 0.70313 -1.8359 1.7578 -1.8359 3.1641 l0 7.5391 l0.019531 0.11719 c-0.63803 -0.54688 -0.95703 -1.237 -0.95703 -2.0703 l0 -7.4219 c0 -1.0547 0.46225 -1.849 1.3867 -2.3828 c0.039063 -0.026035 0.091152 -0.065098 0.15625 -0.11719 z M139.31678125 14.98 c-0.29947 -0.61197 -0.46225 -1.0807 -0.48828 -1.4063 c0.59896 0.026035 1.1523 0.18229 1.6602 0.46875 c-0.46875 0.27344 -0.70313 0.6901 -0.70313 1.25 c0 0.36459 0.091152 0.78125 0.27344 1.25 z M134.08208125 40.17578 c0.40365 0.3125 0.86588 0.54689 1.3867 0.70314 l0 0.35156 c-0.67709 0.53385 -1.4388 0.80078 -2.2852 0.80078 c-0.66406 0 -1.276 -0.16275 -1.8359 -0.48828 c0.23438 -0.13021 0.45572 -0.29949 0.66406 -0.50783 c0.75521 -0.11719 1.4453 -0.40365 2.0703 -0.85938 z M160.39078125 14.043 c-1.224 0.70313 -1.8359 1.7578 -1.8359 3.1641 l0 7.5391 l0.019531 0.11719 c-0.63803 -0.54688 -0.95703 -1.237 -0.95703 -2.0703 l0 -7.4219 c0 -0.67709 0.22787 -1.2761 0.68359 -1.7969 l0.11719 -0.019531 l0.13672 0 c0.66406 0 1.276 0.16275 1.8359 0.48828 z M137.71488125 27.422 c0.3125 0.61197 0.625 1.2305 0.9375 1.8555 l0 9.2188 l0.019531 0.11719 c-0.63803 -0.54688 -0.95703 -1.237 -0.95703 -2.0703 l0 -9.1211 z M139.23878125 40.3516 c0.32553 0.50781 0.73566 0.90492 1.2304 1.1914 c-0.5599 0.32553 -1.1654 0.48828 -1.8164 0.48828 c-0.84635 0 -1.6081 -0.26693 -2.2852 -0.80078 l0 -0.17578 l0.21484 0.019531 l0.23438 0.019531 c0.80729 0 1.5625 -0.20182 2.2656 -0.60547 c0.05209 -0.026035 0.10418 -0.071602 0.15627 -0.1367 z M159.15978125 40.37111 c0.32553 0.49479 0.73564 0.88541 1.2304 1.1719 c-0.57291 0.32553 -1.1849 0.48828 -1.8359 0.48828 c-0.84635 0 -1.6081 -0.26693 -2.2852 -0.80078 l0 -0.17578 l0.23438 0.019531 l0.21484 0.019531 c0.79428 0 1.5495 -0.20182 2.2656 -0.60547 c0.05209 -0.026035 0.11068 -0.065098 0.17578 -0.11719 z M144.04278125 33.0469 c0.35156 0.16928 0.72268 0.29947 1.1133 0.39063 l0.33203 0.64453 c-0.52084 0.26041 -1.0612 0.39063 -1.6211 0.39063 c-0.66406 0 -1.276 -0.16275 -1.8359 -0.48828 c0.15625 -0.11719 0.26693 -0.27344 0.33203 -0.46875 c0.58594 -0.039063 1.1458 -0.19531 1.6797 -0.46875 z M153.98478125 40.17578 c0.41666 0.3125 0.87893 0.54689 1.3867 0.70314 l0 0.35156 c-0.67709 0.53385 -1.4388 0.80078 -2.2852 0.80078 c-0.65104 0 -1.2565 -0.16275 -1.8164 -0.48828 c0.22135 -0.13021 0.4427 -0.29949 0.66404 -0.50783 c0.75521 -0.11719 1.4388 -0.40365 2.0508 -0.85938 z M149.57078125 32.4414 c-0.16928 0.29947 -0.25393 0.56641 -0.25393 0.80078 c0 0.29947 0.13672 0.54688 0.41016 0.74219 c-0.5599 0.32553 -1.1654 0.48828 -1.8164 0.48828 c-0.57291 0 -1.1198 -0.13021 -1.6406 -0.39063 l0.3125 -0.58594 c0.63803 -0.065098 1.224 -0.25391 1.7578 -0.56641 c0.28646 -0.16928 0.43621 -0.41668 0.44924 -0.74221 l0 -0.039063 c0 -0.29947 -0.12369 -0.54035 -0.37109 -0.72264 l0 -0.11719 c0.013027 -0.078125 0.05209 -0.18229 0.11719 -0.3125 l1.8164 -3.5938 l0 3.4961 z M156.71878125 11.719000000000001 c0.66406 0 1.276 0.16275 1.8359 0.48828 c-1.224 0.70313 -1.8359 1.7578 -1.8359 3.1641 l0 7.4219 c0 1.4063 0.61197 2.4609 1.8359 3.1641 c-1.224 0.70313 -1.8359 1.7578 -1.8359 3.1641 l0 7.4219 c0 1.3932 0.61197 2.4479 1.8359 3.1641 c-0.57291 0.32553 -1.1849 0.48828 -1.8359 0.48828 c-0.84635 0 -1.6081 -0.26693 -2.2852 -0.80078 l0 -26.875 c0.67709 -0.53385 1.4388 -0.80078 2.2852 -0.80078 z M146.07378125 32.6367 c-0.57291 0 -1.1198 -0.13021 -1.6406 -0.39063 l9.1016 -17.48 l0 24.629 c-0.67709 0.53385 -1.4388 0.80078 -2.2852 0.80078 c-0.65104 0 -1.263 -0.16275 -1.8359 -0.48828 c1.224 -0.71615 1.8359 -1.7708 1.8359 -3.1641 l0 -12.91 l-3.5156 6.9727 c-0.16928 0.29947 -0.25391 0.56641 -0.25391 0.80078 c0 0.29947 0.13672 0.54688 0.41016 0.74219 c-0.5599 0.32553 -1.1654 0.48828 -1.8164 0.48828 z M136.81618125 40.19533 c-0.84635 0 -1.608 -0.26691 -2.2852 -0.80076 l0 -24.629 l9.1211 17.48 c-0.52084 0.26041 -1.0612 0.39063 -1.6211 0.39063 c-0.66406 0 -1.276 -0.16275 -1.8359 -0.48828 c0.26041 -0.19531 0.39063 -0.44271 0.39063 -0.74219 c0 -0.23438 -0.078125 -0.50131 -0.23438 -0.80078 c-0.39063 -0.72916 -1.0807 -2.0768 -2.0703 -4.043 c-0.3125 -0.61197 -0.64453 -1.2695 -0.99609 -1.9727 c-0.05209 -0.11719 -0.11068 -0.24088 -0.17578 -0.37109 c-0.039063 -0.091152 -0.084629 -0.1823 -0.13672 -0.27346 c-0.10416 -0.19531 -0.15625 -0.29947 -0.15625 -0.3125 l0 12.91 c0 1.3932 0.60547 2.4479 1.8164 3.1641 c-0.57291 0.32553 -1.1784 0.48828 -1.8164 0.48828 z M149.57078125 15.370999999999999 c0.36459 -0.75521 0.54688 -1.3867 0.54688 -1.8945 c0 -0.57291 -0.22787 -0.99609 -0.68359 -1.2695 c0.5599 -0.32553 1.1654 -0.48828 1.8164 -0.48828 c0.91146 0 1.7122 0.29947 2.4023 0.89844 l-9.6094 18.438 l-9.6289 -18.438 c0.6901 -0.59896 1.4909 -0.89844 2.4023 -0.89844 c0.65104 0 1.2565 0.16275 1.8164 0.48828 c-0.45572 0.27344 -0.68359 0.69662 -0.68359 1.2695 c0 0.50781 0.18229 1.1393 0.54688 1.8945 l5.5469 11.719 z M131.34768125 11.719000000000001 c0.84635 0 1.6081 0.26693 2.2852 0.80078 l0 26.875 c-0.67709 0.53385 -1.4388 0.80078 -2.2852 0.80078 c-0.66406 0 -1.276 -0.16275 -1.8359 -0.48828 c1.224 -0.71615 1.8359 -1.7708 1.8359 -3.1641 l0 -7.4219 c0 -1.3932 -0.61197 -2.4479 -1.8359 -3.1641 c1.224 -0.70313 1.8359 -1.7578 1.8359 -3.1641 l0 -7.4219 c0 -1.4063 -0.61197 -2.4609 -1.8359 -3.1641 c0.5599 -0.32553 1.1719 -0.48828 1.8359 -0.48828 z M176.2495625 29.219 c0.83334 0 1.5299 0.319 2.0898 0.95703 l-0.25391 -0.019531 l-7.3828 0 l0 4.082 l-0.95703 0 l0.019531 -5.0195 l6.4844 0 z M182.0315625 14.434000000000001 c0.33854 -0.53385 0.55336 -1.1198 0.64451 -1.7578 c0.20834 -0.22135 0.37762 -0.4427 0.50783 -0.66404 c0.32553 0.5599 0.48828 1.1654 0.48828 1.8164 l0 0.058594 c0 0.6901 -0.19531 1.3346 -0.58594 1.9336 l-0.48828 0 c-0.11719 -0.50781 -0.306 -0.97006 -0.56641 -1.3867 z M181.7575625 25.293 c0 0.70313 -0.20182 1.3607 -0.60547 1.9727 l-0.46875 0 c-0.13021 -0.50781 -0.32553 -0.97006 -0.58594 -1.3867 c0.35156 -0.54688 0.57291 -1.1328 0.66406 -1.7578 c0.19531 -0.22135 0.35807 -0.4427 0.48828 -0.66404 c0.33854 0.57291 0.50781 1.1849 0.50781 1.8359 z M180.1955625 30.6055 c0.41666 -0.70313 0.625 -1.4648 0.625 -2.2852 l-0.019531 -0.078125 l0 -0.078125 l0.35156 0 c0.40365 0.625 0.60547 1.2891 0.60547 1.9922 c0 0.65104 -0.16928 1.263 -0.50781 1.8359 c-0.28646 -0.49479 -0.67709 -0.90494 -1.1719 -1.2305 c0.05209 -0.065098 0.091152 -0.11719 0.11719 -0.15625 z M182.6755625 35.8008 c0.20834 -0.20834 0.3776 -0.42967 0.50781 -0.66404 c0.32553 0.57291 0.48828 1.1849 0.48828 1.8359 c0 0.71615 -0.19531 1.3802 -0.58594 1.9922 l-0.48828 0 c-0.11719 -0.52084 -0.3125 -0.98959 -0.58594 -1.4063 c0.35156 -0.53385 0.57291 -1.1198 0.66406 -1.7578 z M183.0855625 39.8633 c0.39063 0.59896 0.58594 1.2565 0.58594 1.9727 c0 0.65104 -0.16275 1.263 -0.48828 1.8359 c-0.28646 -0.49479 -0.67709 -0.90494 -1.1719 -1.2305 c0.05209 -0.065098 0.091152 -0.11719 0.11719 -0.15625 c0.40365 -0.70313 0.60547 -1.4648 0.60547 -2.2852 l0 -0.13672 l0.35156 0 z M178.1835625 17.773 c0.83334 0 1.5299 0.319 2.0898 0.95703 l-0.13672 0 l-0.11719 -0.019531 l-9.3164 0 l0 3.8477 l-0.95703 0 l0.019531 -4.7852 l8.418 0 z M183.0855625 16.719 c0.39063 0.61197 0.58594 1.276 0.58594 1.9922 c0 0.66406 -0.16275 1.276 -0.48828 1.8359 c-0.28646 -0.49479 -0.67709 -0.90494 -1.1719 -1.2305 c0.05209 -0.065098 0.091152 -0.11719 0.11719 -0.15625 c0.40365 -0.70313 0.60547 -1.4648 0.60547 -2.2852 l0 -0.15625 l0.35156 0 z M178.1835625 40.89846 c0.83334 0 1.5234 0.319 2.0703 0.95703 l-0.11719 0 l-0.11719 -0.019531 l-14.785 0.019531 c-0.65104 0 -1.263 -0.16928 -1.8359 -0.50781 c0.19531 -0.11719 0.39713 -0.26693 0.60547 -0.44922 l14.18 0 z M178.1835625 12.012 c1.4063 0 2.4609 -0.61197 3.1641 -1.8359 c0.32553 0.5599 0.48828 1.1654 0.48828 1.8164 c0 0.71615 -0.19531 1.3802 -0.58594 1.9922 l-15.566 0 l0 24.043 l15.566 0 c0.39063 0.59896 0.58594 1.2565 0.58594 1.9727 c0 0.65104 -0.16275 1.263 -0.48828 1.8359 c-0.70313 -1.224 -1.7578 -1.8359 -3.1641 -1.8359 l-14.785 0 c-0.65104 0 -1.263 -0.16275 -1.8359 -0.48828 c1.2109 -0.70313 1.8229 -1.7513 1.8359 -3.1445 l0 -7.207 c-0.013027 -1.4063 -0.625 -2.4609 -1.8359 -3.1641 c1.2109 -0.70313 1.8229 -1.7513 1.8359 -3.1445 l0 -7.207 c-0.013027 -1.3932 -0.625 -2.4414 -1.8359 -3.1445 c0.57291 -0.32553 1.1849 -0.48828 1.8359 -0.48828 l14.785 0 z M179.4145625 30.1562 c-0.70313 -1.224 -1.7578 -1.8359 -3.1641 -1.8359 l-7.3828 0 l-0.019531 6.8164 l9.3359 0 c1.4063 0 2.4609 -0.61197 3.1641 -1.8359 c0.32553 0.57291 0.48828 1.1849 0.48828 1.8359 c0 0.71615 -0.19531 1.3737 -0.58594 1.9727 l-14.668 0 l0 -10.781 l12.734 0 c0.40365 0.625 0.60547 1.2891 0.60547 1.9922 c0 0.65104 -0.16928 1.263 -0.50781 1.8359 z M166.5820625 14.883 l14.668 0.000019073 c0.39063 0.61197 0.58594 1.276 0.58594 1.9922 c0 0.66406 -0.16275 1.276 -0.48828 1.8359 c-0.70313 -1.224 -1.7578 -1.8359 -3.1641 -1.8359 l-9.3164 0 l0 6.582 l7.3828 0 c1.4063 0 2.4609 -0.61197 3.1641 -1.8359 c0.33854 0.57291 0.50781 1.1849 0.50781 1.8359 c0 0.70313 -0.20182 1.3607 -0.60547 1.9727 l-12.734 0 l0 -10.547 z M207.4418125 20.566 c0 -1.0026 -0.13021 -1.9662 -0.39063 -2.8906 c0.88541 1.3932 1.3281 2.9688 1.3281 4.7266 c0 1.8229 -0.50131 3.3984 -1.5039 4.7266 c-0.88541 1.1719 -2.0508 2.0313 -3.4961 2.5781 l-0.70313 -1.3477 c1.5104 -0.72916 2.6822 -1.7708 3.5156 -3.125 c0.83334 -1.3672 1.25 -2.9232 1.25 -4.668 z M209.2968125 40.48824 c0.46875 0.46875 0.91799 0.83334 1.3477 1.0938 c-0.59896 0.32553 -1.2175 0.48828 -1.8555 0.48828 c-0.74219 0 -1.4388 -0.18229 -2.0898 -0.54688 l-0.19531 -0.42969 l0.21484 0.019531 l0.23438 0.019531 c0.79428 0 1.556 -0.20182 2.2852 -0.60547 l0.039063 -0.019531 z M195.7808125 30.664099999999998 l-1.9922 0 l0 7.8711 l0.019531 0.11719 c-0.63803 -0.54688 -0.95703 -1.237 -0.95703 -2.0703 l0 -6.8555 l2.4609 0 z M197.1098125 17.773 c1.0547 0 1.862 0.32553 2.4219 0.97656 c-0.20834 -0.026035 -0.40365 -0.039063 -0.58594 -0.039063 l-5.1563 0 l0 4.6484 l-0.9375 0 l0 -5.5859 l4.2578 0 z M189.2187125 40.2148 c0.41666 0.3125 0.87889 0.54688 1.3867 0.70313 l0 0.35156 c-0.67709 0.53385 -1.4388 0.80078 -2.2852 0.80078 c-0.65104 0 -1.263 -0.16275 -1.8359 -0.48828 c0.23438 -0.14322 0.46225 -0.3125 0.68359 -0.50781 c0.75521 -0.11719 1.4388 -0.40365 2.0508 -0.85938 z M204.4338125 40.46871 c0.26041 0.14322 0.57291 0.27342 0.9375 0.39061 l0.15625 0.33203 c-0.61197 0.58594 -1.3477 0.87891 -2.207 0.87891 c-0.65104 0 -1.25 -0.16275 -1.7969 -0.48828 c0.23438 -0.14322 0.41016 -0.3125 0.52734 -0.50781 c0.79428 -0.10416 1.4844 -0.40363 2.0703 -0.89842 c0.078125 0.11719 0.18229 0.21484 0.3125 0.29297 z M194.3748125 40.39057 c0.32553 0.50781 0.73564 0.90492 1.2304 1.1914 c-0.57291 0.32553 -1.1784 0.48828 -1.8164 0.48828 c-0.85938 0 -1.6211 -0.26693 -2.2852 -0.80078 l0 -0.17578 l0.21484 0.019531 l0.23438 0.019531 c0.79428 0 1.5495 -0.20182 2.2656 -0.60547 c0.05209 -0.026035 0.10418 -0.071602 0.15627 -0.1367 z M205.9178125 36.5625 c0.74219 1.4063 1.7057 2.4674 2.8906 3.1836 c-0.59896 0.32553 -1.2175 0.48828 -1.8555 0.48828 c-0.74219 0 -1.4388 -0.18229 -2.0898 -0.54688 l-6.4063 -12.734 c1.7708 -0.23438 3.19 -0.91146 4.2578 -2.0313 c1.0547 -1.1328 1.582 -2.5521 1.582 -4.2578 c0 -2.1484 -0.76172 -3.8346 -2.2852 -5.0586 c-1.3412 -1.0807 -2.9623 -1.6211 -4.8633 -1.6211 l-8.3789 0 l0 25.449 c-0.67709 0.53385 -1.4388 0.80078 -2.2852 0.80078 c-0.65104 0 -1.263 -0.16275 -1.8359 -0.48828 c1.224 -0.71615 1.8359 -1.7708 1.8359 -3.1641 l0 -7.4609 c-0.013027 -1.3802 -0.625 -2.4219 -1.8359 -3.125 c1.2109 -0.70313 1.8229 -1.7513 1.8359 -3.1445 l0 -7.2461 c-0.013027 -1.3802 -0.625 -2.4219 -1.8359 -3.125 c0.57291 -0.32553 1.1849 -0.48828 1.8359 -0.48828 l10.977 0 c2.7604 0 4.9869 0.83984 6.6797 2.5195 c1.6016 1.6016 2.4023 3.6197 2.4023 6.0547 c0 1.849 -0.51432 3.4439 -1.543 4.7852 c-0.89844 1.1719 -2.0898 2.0248 -3.5742 2.5586 z M197.1878125 27.051000000000002 l0.13672 -0.019531 l0.15625 0 l6.2109 12.324 c-0.61197 0.58594 -1.3477 0.87891 -2.207 0.87891 c-0.65104 0 -1.2565 -0.16275 -1.8164 -0.48828 c0.46875 -0.27344 0.70313 -0.65104 0.70313 -1.1328 l0 -0.15625 c-0.039063 -0.40365 -0.26693 -1.0352 -0.68359 -1.8945 l-3.8086 -7.7344 l-3.9258 0 l0 7.7539 c0 1.3932 0.60547 2.4479 1.8164 3.1641 c-0.57291 0.32553 -1.1784 0.48828 -1.8164 0.48828 c-0.85938 0 -1.6211 -0.26693 -2.2852 -0.80078 l0 -12.383 l7.5195 0 z M197.1098125 24.258 c1.1849 0 2.1484 -0.34508 2.8906 -1.0352 c0.71615 -0.6901 1.0742 -1.5755 1.0742 -2.6563 c0 -1.0938 -0.35807 -1.9791 -1.0742 -2.6563 c-0.74219 -0.6901 -1.7057 -1.0352 -2.8906 -1.0352 l-5.1563 0 l0 7.3828 l5.1563 0 z M197.9098125 26.113 c-0.27344 0.026035 -0.51432 0.039043 -0.72266 0.039043 l-7.5195 0 l0 -11.27 l7.4805 0 c0.61197 0 1.2435 0.084629 1.8945 0.25391 c0.75521 0.20834 1.4323 0.51434 2.0313 0.91799 c1.5495 1.0417 2.3242 2.5781 2.3242 4.6094 c0 1.6927 -0.56641 3.0209 -1.6992 3.9844 c-0.95053 0.82031 -2.1811 1.3021 -3.6914 1.4453 z M226.66040625 21.523 c0.625 -0.091152 1.2109 -0.31248 1.7578 -0.66404 c0.40365 0.26041 0.8659 0.45572 1.3867 0.58594 l0 0.15625 l0.019531 0.3125 c-0.625 0.40365 -1.2956 0.60547 -2.0117 0.60547 c-0.65104 0 -1.263 -0.16275 -1.8359 -0.48828 c0.23438 -0.13021 0.46225 -0.29949 0.68359 -0.50783 z M233.14440625 20.957 c0.039063 -0.026035 0.091133 -0.065098 0.15623 -0.11719 c0.32553 0.50781 0.73568 0.90494 1.2305 1.1914 c-0.57291 0.32553 -1.1849 0.48828 -1.8359 0.48828 c-0.71615 0 -1.3802 -0.19531 -1.9922 -0.58594 l0 -0.37109 l0.078125 0.019531 l0.078125 0 c0.80729 0 1.569 -0.20834 2.2852 -0.625 z M221.15240625 17.48 c1.25 0 2.2266 0.3451 2.9297 1.0352 c-0.35156 -0.05209 -0.71615 -0.078125 -1.0938 -0.078125 c-1.4583 0 -2.6236 0.49479 -3.4961 1.4844 c-0.42969 0.54688 -0.72916 1.1068 -0.89844 1.6797 c-0.20834 0.6901 -0.33855 1.7318 -0.39064 3.125 l0 0.13672 c-0.59896 -0.52084 -0.91146 -1.1784 -0.9375 -1.9727 c0.05209 -1.3151 0.16928 -2.2852 0.35156 -2.9102 c0.13021 -0.44271 0.36459 -0.87891 0.70313 -1.3086 c0.70313 -0.79428 1.6471 -1.1914 2.832 -1.1914 z M232.69540625 33.0664 c0.65104 0 1.2631 0.16273 1.836 0.48826 c-0.78125 0.44271 -1.3281 1.1068 -1.6406 1.9922 c-0.70313 1.9662 -1.862 3.5092 -3.4766 4.6289 c-1.7578 1.237 -3.8998 1.8555 -6.4258 1.8555 c-2.0834 0 -3.9518 -0.50781 -5.6055 -1.5234 c1.1979 0.39063 2.4545 0.58594 3.7695 0.58594 c2.6041 0 4.8438 -0.6185 6.7188 -1.8555 s3.2162 -2.9818 4.0234 -5.2344 c0.11719 -0.33854 0.29947 -0.64453 0.54688 -0.91797 l0.11719 -0.019531 l0.13672 0 z M218.43750625 33.3594 l-0.078145 -0.097619 c-0.35156 -0.44271 -0.59244 -0.88543 -0.72266 -1.3281 c-0.19531 -0.625 -0.319 -1.5951 -0.37109 -2.9102 c0.039063 -1.0156 0.49479 -1.7838 1.3672 -2.3047 c0.05209 -0.013027 0.10418 -0.05209 0.15627 -0.11719 c0.32553 0.50781 0.73568 0.90494 1.2305 1.1914 c-1.1719 0.6901 -1.7773 1.7122 -1.8164 3.0664 c0.039063 1.0417 0.11719 1.875 0.23438 2.5 z M230.85940625 20.684 c-0.71615 0 -1.3802 -0.19535 -1.9922 -0.58598 l0 -0.44922 c-0.013027 -0.05209 -0.019531 -0.11719 -0.019531 -0.19531 c-0.039063 -0.22135 -0.084629 -0.44922 -0.13672 -0.68359 c-0.18229 -0.75521 -0.47525 -1.4453 -0.87891 -2.0703 c-1.3021 -1.9922 -3.4701 -2.9883 -6.5039 -2.9883 c-2.4869 0 -4.375 0.64453 -5.6641 1.9336 c-1.0156 1.0287 -1.7122 2.526 -2.0898 4.4922 c-0.26041 1.3932 -0.39063 3.2227 -0.39063 5.4883 l0 0.33203 c0.026035 3.9713 0.46223 6.8164 1.3086 8.5352 c1.1979 2.474 3.4766 3.7109 6.8359 3.7109 c3.0338 0 5.2018 -0.99609 6.5039 -2.9883 c0.40365 -0.625 0.69662 -1.3151 0.87891 -2.0703 c0.05209 -0.23438 0.097656 -0.46875 0.13672 -0.70313 c0 -0.065098 0.0065041 -0.1302 0.019531 -0.19529 l0 -0.42969 c0.61197 -0.39063 1.276 -0.58594 1.9922 -0.58594 c0.65104 0 1.263 0.16275 1.8359 0.48828 c-0.78125 0.44271 -1.3281 1.1068 -1.6406 1.9922 c-0.70313 1.9531 -1.862 3.4961 -3.4766 4.6289 c-1.7578 1.237 -3.8998 1.8555 -6.4258 1.8555 c-2.9947 0 -5.5143 -1.0221 -7.5586 -3.0664 c-1.2109 -1.2109 -1.9727 -2.6172 -2.2852 -4.2188 c-0.19531 -0.96354 -0.32553 -2.2266 -0.39063 -3.7891 c0 -1.4063 -0.61197 -2.4609 -1.8359 -3.1641 c1.224 -0.70313 1.8359 -1.7578 1.8359 -3.1641 c0.065098 -1.5625 0.19531 -2.832 0.39063 -3.8086 c0.3125 -1.5885 1.0742 -2.9883 2.2852 -4.1992 c2.0572 -2.0443 4.5768 -3.0664 7.5586 -3.0664 c2.526 0 4.668 0.61197 6.4258 1.8359 c1.6146 1.1328 2.7734 2.6822 3.4766 4.6484 c0.29947 0.8724 0.84635 1.5365 1.6406 1.9922 c-0.57291 0.32553 -1.1849 0.48828 -1.8359 0.48828 z M225.11740625 19.395 c0.10416 -0.15625 0.16271 -0.31889 0.17574 -0.48816 l0 -0.039063 c0 -0.20834 -0.078125 -0.41668 -0.23438 -0.62502 c-0.89844 -1.0938 -2.2006 -1.6406 -3.9063 -1.6406 c-1.4583 0 -2.6236 0.49479 -3.4961 1.4844 c-0.42969 0.54688 -0.72916 1.1068 -0.89844 1.6797 c-0.20834 0.6901 -0.33855 1.7318 -0.39064 3.125 c0.039063 1.3672 0.64453 2.3893 1.8164 3.0664 c-1.1719 0.67709 -1.7773 1.6992 -1.8164 3.0664 c0.05209 1.3932 0.1823 2.435 0.39064 3.125 c0.16928 0.57291 0.46875 1.1328 0.89844 1.6797 c0.8724 0.98959 2.0377 1.4844 3.4961 1.4844 c1.7057 0 3.0078 -0.55338 3.9063 -1.6602 c0.15625 -0.19531 0.23438 -0.39713 0.23438 -0.60547 l0 -0.039063 c-0.013027 -0.16928 -0.071621 -0.33203 -0.17578 -0.48828 c-0.20834 -0.28646 -0.53387 -0.5534 -0.97658 -0.8008 c0.57291 -0.32553 1.1849 -0.48828 1.8359 -0.48828 c0.71615 0 1.3867 0.20182 2.0117 0.60547 l-0.019531 0.3125 l0 0.097656 c-0.013027 0.05209 -0.019531 0.11068 -0.019531 0.17578 c-0.026035 0.20834 -0.065098 0.41668 -0.11719 0.62502 c-0.15625 0.63803 -0.41666 1.224 -0.78125 1.7578 c-1.1328 1.6667 -3.0404 2.5 -5.7227 2.5 c-2.8646 0 -4.8242 -0.95053 -5.8789 -2.8516 c-0.88541 -1.6016 -1.3411 -4.4336 -1.3672 -8.4961 l0 -0.35156 c0 -2.1484 0.11719 -3.8736 0.35156 -5.1758 c0.33854 -1.849 0.96354 -3.2291 1.875 -4.1406 c1.1198 -1.1198 2.793 -1.6797 5.0195 -1.6797 c2.6693 0 4.5703 0.83334 5.7031 2.5 c0.36459 0.52084 0.63152 1.1068 0.8008 1.7578 c0.05209 0.20834 0.091152 0.41016 0.11719 0.60547 c0 0.065098 0.0065041 0.1302 0.019531 0.19529 l0 0.097656 l0.019531 0.3125 c-0.625 0.40365 -1.2956 0.60547 -2.0117 0.60547 c-0.65104 0 -1.263 -0.16275 -1.8359 -0.48828 c0.44271 -0.2474 0.76824 -0.51434 0.97658 -0.8008 z M250.3901875 29.219 c0.83334 0 1.5299 0.319 2.0898 0.95703 l-0.25391 -0.019531 l-7.3828 0 l0 4.082 l-0.95703 0 l0.019531 -5.0195 l6.4844 0 z M256.1721875 14.434000000000001 c0.33854 -0.53385 0.55336 -1.1198 0.64451 -1.7578 c0.20834 -0.22135 0.37762 -0.4427 0.50783 -0.66404 c0.32553 0.5599 0.48828 1.1654 0.48828 1.8164 l0 0.058594 c0 0.6901 -0.19531 1.3346 -0.58594 1.9336 l-0.48828 0 c-0.11719 -0.50781 -0.306 -0.97006 -0.56641 -1.3867 z M255.8981875 25.293 c0 0.70313 -0.20182 1.3607 -0.60547 1.9727 l-0.46875 0 c-0.13021 -0.50781 -0.32553 -0.97006 -0.58594 -1.3867 c0.35156 -0.54688 0.57291 -1.1328 0.66406 -1.7578 c0.19531 -0.22135 0.35807 -0.4427 0.48828 -0.66404 c0.33854 0.57291 0.50781 1.1849 0.50781 1.8359 z M254.3361875 30.6055 c0.41666 -0.70313 0.625 -1.4648 0.625 -2.2852 l-0.019531 -0.078125 l0 -0.078125 l0.35156 0 c0.40365 0.625 0.60547 1.2891 0.60547 1.9922 c0 0.65104 -0.16928 1.263 -0.50781 1.8359 c-0.28646 -0.49479 -0.67709 -0.90494 -1.1719 -1.2305 c0.05209 -0.065098 0.091152 -0.11719 0.11719 -0.15625 z M256.8161875 35.8008 c0.20834 -0.20834 0.3776 -0.42967 0.50781 -0.66404 c0.32553 0.57291 0.48828 1.1849 0.48828 1.8359 c0 0.71615 -0.19531 1.3802 -0.58594 1.9922 l-0.48828 0 c-0.11719 -0.52084 -0.3125 -0.98959 -0.58594 -1.4063 c0.35156 -0.53385 0.57291 -1.1198 0.66406 -1.7578 z M257.2261875 39.8633 c0.39063 0.59896 0.58594 1.2565 0.58594 1.9727 c0 0.65104 -0.16275 1.263 -0.48828 1.8359 c-0.28646 -0.49479 -0.67709 -0.90494 -1.1719 -1.2305 c0.05209 -0.065098 0.091152 -0.11719 0.11719 -0.15625 c0.40365 -0.70313 0.60547 -1.4648 0.60547 -2.2852 l0 -0.13672 l0.35156 0 z M252.3241875 17.773 c0.83334 0 1.5299 0.319 2.0898 0.95703 l-0.13672 0 l-0.11719 -0.019531 l-9.3164 0 l0 3.8477 l-0.95703 0 l0.019531 -4.7852 l8.418 0 z M257.2261875 16.719 c0.39063 0.61197 0.58594 1.276 0.58594 1.9922 c0 0.66406 -0.16275 1.276 -0.48828 1.8359 c-0.28646 -0.49479 -0.67709 -0.90494 -1.1719 -1.2305 c0.05209 -0.065098 0.091152 -0.11719 0.11719 -0.15625 c0.40365 -0.70313 0.60547 -1.4648 0.60547 -2.2852 l0 -0.15625 l0.35156 0 z M252.3241875 40.89846 c0.83334 0 1.5234 0.319 2.0703 0.95703 l-0.11719 0 l-0.11719 -0.019531 l-14.785 0.019531 c-0.65104 0 -1.263 -0.16928 -1.8359 -0.50781 c0.19531 -0.11719 0.39713 -0.26693 0.60547 -0.44922 l14.18 0 z M252.3241875 12.012 c1.4063 0 2.4609 -0.61197 3.1641 -1.8359 c0.32553 0.5599 0.48828 1.1654 0.48828 1.8164 c0 0.71615 -0.19531 1.3802 -0.58594 1.9922 l-15.566 0 l0 24.043 l15.566 0 c0.39063 0.59896 0.58594 1.2565 0.58594 1.9727 c0 0.65104 -0.16275 1.263 -0.48828 1.8359 c-0.70313 -1.224 -1.7578 -1.8359 -3.1641 -1.8359 l-14.785 0 c-0.65104 0 -1.263 -0.16275 -1.8359 -0.48828 c1.2109 -0.70313 1.8229 -1.7513 1.8359 -3.1445 l0 -7.207 c-0.013027 -1.4063 -0.625 -2.4609 -1.8359 -3.1641 c1.2109 -0.70313 1.8229 -1.7513 1.8359 -3.1445 l0 -7.207 c-0.013027 -1.3932 -0.625 -2.4414 -1.8359 -3.1445 c0.57291 -0.32553 1.1849 -0.48828 1.8359 -0.48828 l14.785 0 z M253.5551875 30.1562 c-0.70313 -1.224 -1.7578 -1.8359 -3.1641 -1.8359 l-7.3828 0 l-0.019531 6.8164 l9.3359 0 c1.4063 0 2.4609 -0.61197 3.1641 -1.8359 c0.32553 0.57291 0.48828 1.1849 0.48828 1.8359 c0 0.71615 -0.19531 1.3737 -0.58594 1.9727 l-14.668 0 l0 -10.781 l12.734 0 c0.40365 0.625 0.60547 1.2891 0.60547 1.9922 c0 0.65104 -0.16928 1.263 -0.50781 1.8359 z M240.7226875 14.883 l14.668 0.000019073 c0.39063 0.61197 0.58594 1.276 0.58594 1.9922 c0 0.66406 -0.16275 1.276 -0.48828 1.8359 c-0.70313 -1.224 -1.7578 -1.8359 -3.1641 -1.8359 l-9.3164 0 l0 6.582 l7.3828 0 c1.4063 0 2.4609 -0.61197 3.1641 -1.8359 c0.33854 0.57291 0.50781 1.1849 0.50781 1.8359 c0 0.70313 -0.20182 1.3607 -0.60547 1.9727 l-12.734 0 l0 -10.547 z"/>
  </g>
</svg>